<svg id="visual" viewBox="0 0 960 540" width="960" height="540" xmlns="http://www.w3.org/2000/svg" xmlns:xlink="http://www.w3.org/1999/xlink" version="1.1"><rect x="0" y="0" width="960" height="540" fill="#f6f6f6"></rect><defs><linearGradient id="grad1_0" x1="43.8%" y1="0%" x2="100%" y2="100%"><stop offset="14.444444444444446%" stop-color="#0094b4" stop-opacity="1"></stop><stop offset="85.55555555555554%" stop-color="#0094b4" stop-opacity="1"></stop></linearGradient></defs><defs><linearGradient id="grad1_1" x1="43.8%" y1="0%" x2="100%" y2="100%"><stop offset="14.444444444444446%" stop-color="#0094b4" stop-opacity="1"></stop><stop offset="85.55555555555554%" stop-color="#48a2bd" stop-opacity="1"></stop></linearGradient></defs><defs><linearGradient id="grad1_2" x1="43.8%" y1="0%" x2="100%" y2="100%"><stop offset="14.444444444444446%" stop-color="#6cafc7" stop-opacity="1"></stop><stop offset="85.55555555555554%" stop-color="#48a2bd" stop-opacity="1"></stop></linearGradient></defs><defs><linearGradient id="grad1_3" x1="43.8%" y1="0%" x2="100%" y2="100%"><stop offset="14.444444444444446%" stop-color="#6cafc7" stop-opacity="1"></stop><stop offset="85.55555555555554%" stop-color="#8abdd0" stop-opacity="1"></stop></linearGradient></defs><defs><linearGradient id="grad1_4" x1="43.8%" y1="0%" x2="100%" y2="100%"><stop offset="14.444444444444446%" stop-color="#a6cbd9" stop-opacity="1"></stop><stop offset="85.55555555555554%" stop-color="#8abdd0" stop-opacity="1"></stop></linearGradient></defs><defs><linearGradient id="grad1_5" x1="43.8%" y1="0%" x2="100%" y2="100%"><stop offset="14.444444444444446%" stop-color="#a6cbd9" stop-opacity="1"></stop><stop offset="85.55555555555554%" stop-color="#c1d9e3" stop-opacity="1"></stop></linearGradient></defs><defs><linearGradient id="grad1_6" x1="43.8%" y1="0%" x2="100%" y2="100%"><stop offset="14.444444444444446%" stop-color="#dce8ec" stop-opacity="1"></stop><stop offset="85.55555555555554%" stop-color="#c1d9e3" stop-opacity="1"></stop></linearGradient></defs><defs><linearGradient id="grad1_7" x1="43.8%" y1="0%" x2="100%" y2="100%"><stop offset="14.444444444444446%" stop-color="#dce8ec" stop-opacity="1"></stop><stop offset="85.55555555555554%" stop-color="#f6f6f6" stop-opacity="1"></stop></linearGradient></defs><defs><linearGradient id="grad2_0" x1="0%" y1="0%" x2="56.3%" y2="100%"><stop offset="14.444444444444446%" stop-color="#0094b4" stop-opacity="1"></stop><stop offset="85.55555555555554%" stop-color="#0094b4" stop-opacity="1"></stop></linearGradient></defs><defs><linearGradient id="grad2_1" x1="0%" y1="0%" x2="56.3%" y2="100%"><stop offset="14.444444444444446%" stop-color="#48a2bd" stop-opacity="1"></stop><stop offset="85.55555555555554%" stop-color="#0094b4" stop-opacity="1"></stop></linearGradient></defs><defs><linearGradient id="grad2_2" x1="0%" y1="0%" x2="56.3%" y2="100%"><stop offset="14.444444444444446%" stop-color="#48a2bd" stop-opacity="1"></stop><stop offset="85.55555555555554%" stop-color="#6cafc7" stop-opacity="1"></stop></linearGradient></defs><defs><linearGradient id="grad2_3" x1="0%" y1="0%" x2="56.3%" y2="100%"><stop offset="14.444444444444446%" stop-color="#8abdd0" stop-opacity="1"></stop><stop offset="85.55555555555554%" stop-color="#6cafc7" stop-opacity="1"></stop></linearGradient></defs><defs><linearGradient id="grad2_4" x1="0%" y1="0%" x2="56.3%" y2="100%"><stop offset="14.444444444444446%" stop-color="#8abdd0" stop-opacity="1"></stop><stop offset="85.55555555555554%" stop-color="#a6cbd9" stop-opacity="1"></stop></linearGradient></defs><defs><linearGradient id="grad2_5" x1="0%" y1="0%" x2="56.3%" y2="100%"><stop offset="14.444444444444446%" stop-color="#c1d9e3" stop-opacity="1"></stop><stop offset="85.55555555555554%" stop-color="#a6cbd9" stop-opacity="1"></stop></linearGradient></defs><defs><linearGradient id="grad2_6" x1="0%" y1="0%" x2="56.3%" y2="100%"><stop offset="14.444444444444446%" stop-color="#c1d9e3" stop-opacity="1"></stop><stop offset="85.55555555555554%" stop-color="#dce8ec" stop-opacity="1"></stop></linearGradient></defs><defs><linearGradient id="grad2_7" x1="0%" y1="0%" x2="56.3%" y2="100%"><stop offset="14.444444444444446%" stop-color="#f6f6f6" stop-opacity="1"></stop><stop offset="85.55555555555554%" stop-color="#dce8ec" stop-opacity="1"></stop></linearGradient></defs><g transform="translate(960, 0)"><path d="M0 294C-53.9 289.6 -107.7 285.3 -148.5 257.2C-189.3 229.1 -217 177.3 -226 130.5C-235.1 83.7 -225.6 41.8 -216 0L0 0Z" fill="#e9eff1"></path><path d="M0 257.3C-47.1 253.4 -94.3 249.6 -129.9 225.1C-165.6 200.5 -189.8 155.2 -197.8 114.2C-205.7 73.2 -197.4 36.6 -189 0L0 0Z" fill="#cfe0e8"></path><path d="M0 220.5C-40.4 217.2 -80.8 214 -111.4 192.9C-142 171.8 -162.7 133 -169.5 97.9C-176.3 62.8 -169.2 31.4 -162 0L0 0Z" fill="#b4d2de"></path><path d="M0 183.8C-33.7 181 -67.3 178.3 -92.8 160.8C-118.3 143.2 -135.6 110.8 -141.3 81.6C-146.9 52.3 -141 26.1 -135 0L0 0Z" fill="#98c4d5"></path><path d="M0 147C-26.9 144.8 -53.9 142.6 -74.2 128.6C-94.6 114.6 -108.5 88.7 -113 65.3C-117.6 41.8 -112.8 20.9 -108 0L0 0Z" fill="#7bb6cb"></path><path d="M0 110.3C-20.2 108.6 -40.4 107 -55.7 96.5C-71 85.9 -81.4 66.5 -84.8 48.9C-88.2 31.4 -84.6 15.7 -81 0L0 0Z" fill="#5ba8c2"></path><path d="M0 73.5C-13.5 72.4 -26.9 71.3 -37.1 64.3C-47.3 57.3 -54.2 44.3 -56.5 32.6C-58.8 20.9 -56.4 10.5 -54 0L0 0Z" fill="#319bb9"></path><path d="M0 36.8C-6.7 36.2 -13.5 35.7 -18.6 32.2C-23.7 28.6 -27.1 22.2 -28.3 16.3C-29.4 10.5 -28.2 5.2 -27 0L0 0Z" fill="#0094b4"></path></g><g transform="translate(0, 540)"><path d="M0 -297C40.3 -257.6 80.6 -218.3 108 -187.1C135.4 -155.9 149.7 -132.8 178.4 -103C207.1 -73.2 250 -36.6 293 0L0 0Z" fill="#e9eff1"></path><path d="M0 -259.9C35.3 -225.4 70.6 -191 94.5 -163.7C118.4 -136.4 131 -116.2 156.1 -90.1C181.2 -64 218.8 -32 256.4 0L0 0Z" fill="#cfe0e8"></path><path d="M0 -222.7C30.2 -193.2 60.5 -163.7 81 -140.3C101.5 -116.9 112.3 -99.6 133.8 -77.3C155.3 -54.9 187.5 -27.4 219.8 0L0 0Z" fill="#b4d2de"></path><path d="M0 -185.6C25.2 -161 50.4 -136.4 67.5 -116.9C84.6 -97.4 93.6 -83 111.5 -64.4C129.4 -45.7 156.3 -22.9 183.1 0L0 0Z" fill="#98c4d5"></path><path d="M0 -148.5C20.2 -128.8 40.3 -109.1 54 -93.5C67.7 -77.9 74.9 -66.4 89.2 -51.5C103.5 -36.6 125 -18.3 146.5 0L0 0Z" fill="#7bb6cb"></path><path d="M0 -111.4C15.1 -96.6 30.2 -81.8 40.5 -70.1C50.8 -58.4 56.1 -49.8 66.9 -38.6C77.7 -27.4 93.8 -13.7 109.9 0L0 0Z" fill="#5ba8c2"></path><path d="M0 -74.2C10.1 -64.4 20.2 -54.6 27 -46.8C33.8 -39 37.4 -33.2 44.6 -25.8C51.8 -18.3 62.5 -9.1 73.3 0L0 0Z" fill="#319bb9"></path><path d="M0 -37.1C5 -32.2 10.1 -27.3 13.5 -23.4C16.9 -19.5 18.7 -16.6 22.3 -12.9C25.9 -9.1 31.3 -4.6 36.6 0L0 0Z" fill="#0094b4"></path></g></svg>