<svg id="visual" viewBox="0 0 960 540" width="960" height="540" xmlns="http://www.w3.org/2000/svg" xmlns:xlink="http://www.w3.org/1999/xlink" version="1.1"><rect x="0" y="0" width="960" height="540" fill="#001649"></rect><path d="M298 0L345 0L345 90L317 90L317 180L262 180L262 270L341 270L341 360L345 360L345 450L290 450L290 540L0 540L0 450L0 450L0 360L0 360L0 270L0 270L0 180L0 180L0 90L0 90L0 0L0 0Z" fill="#001337"></path><path d="M294 0L212 0L212 90L225 90L225 180L281 180L281 270L228 270L228 360L276 360L276 450L229 450L229 540L0 540L0 450L0 450L0 360L0 360L0 270L0 270L0 180L0 180L0 90L0 90L0 0L0 0Z" fill="#00153e"></path><path d="M224 0L160 0L160 90L150 90L150 180L152 180L152 270L202 270L202 360L218 360L218 450L167 450L167 540L0 540L0 450L0 450L0 360L0 360L0 270L0 270L0 180L0 180L0 90L0 90L0 0L0 0Z" fill="#001645"></path><path d="M143 0L107 0L107 90L122 90L122 180L150 180L150 270L143 270L143 360L184 360L184 450L177 450L177 540L0 540L0 450L0 450L0 360L0 360L0 270L0 270L0 180L0 180L0 90L0 90L0 0L0 0Z" fill="#021b54"></path><path d="M94 0L107 0L107 90L69 90L69 180L118 180L118 270L107 270L107 360L140 360L140 450L133 450L133 540L0 540L0 450L0 450L0 360L0 360L0 270L0 270L0 180L0 180L0 90L0 90L0 0L0 0Z" fill="#08266a"></path><path d="M47 0L81 0L81 90L32 90L32 180L33 180L33 270L37 270L37 360L46 360L46 450L51 450L51 540L0 540L0 450L0 450L0 360L0 360L0 270L0 270L0 180L0 180L0 90L0 90L0 0L0 0Z" fill="#0f3181"></path></svg>