<svg id="visual" viewBox="0 0 960 540" width="960" height="540" xmlns="http://www.w3.org/2000/svg" xmlns:xlink="http://www.w3.org/1999/xlink" version="1.1"><rect width="960" height="540" fill="#ffdfc6"></rect><g><g transform="translate(492 521)"><path d="M152 -104.1C177.5 -43.6 165.2 22.3 133.5 85.7C101.9 149.2 50.9 210.1 -12.4 217.3C-75.8 224.5 -151.6 177.9 -186.2 112.7C-220.9 47.5 -214.4 -36.3 -176.5 -103.9C-138.6 -171.5 -69.3 -223 -3 -221.2C63.3 -219.5 126.5 -164.5 152 -104.1Z" fill="none" stroke="#fad7bc" stroke-width="5"></path></g><g transform="translate(71 77)"><path d="M158.1 -93.5C183.8 -46.9 168.9 21 135.8 82.4C102.7 143.9 51.3 198.8 -7.2 203C-65.7 207.1 -131.3 160.4 -159.1 102.1C-186.8 43.8 -176.6 -26.1 -143.7 -76.9C-110.9 -127.6 -55.4 -159.2 5.4 -162.4C66.2 -165.5 132.5 -140.1 158.1 -93.5Z" stroke="#fad7bc" fill="none" stroke-width="5"></path></g><g transform="translate(895 26)"><path d="M73.6 -40.5C93.6 -8 106.5 30.5 93.1 61C79.6 91.6 39.8 114.2 2.5 112.7C-34.8 111.2 -69.5 85.7 -81.9 55.8C-94.2 25.9 -84.1 -8.4 -66.7 -39.4C-49.3 -70.4 -24.7 -98 1.1 -98.7C26.9 -99.3 53.7 -72.9 73.6 -40.5Z" stroke="#fad7bc" fill="none" stroke-width="5"></path></g></g></svg>