<svg id="visual" viewBox="0 0 960 540" width="960" height="540" xmlns="http://www.w3.org/2000/svg" xmlns:xlink="http://www.w3.org/1999/xlink" version="1.1"><rect x="0" y="0" width="960" height="540" fill="#001122"></rect><defs><linearGradient id="grad1_0" x1="43.8%" y1="0%" x2="100%" y2="100%"><stop offset="14.444444444444446%" stop-color="#c62368" stop-opacity="1"></stop><stop offset="85.55555555555554%" stop-color="#c62368" stop-opacity="1"></stop></linearGradient></defs><defs><linearGradient id="grad1_1" x1="43.8%" y1="0%" x2="100%" y2="100%"><stop offset="14.444444444444446%" stop-color="#c62368" stop-opacity="1"></stop><stop offset="85.55555555555554%" stop-color="#a5266f" stop-opacity="1"></stop></linearGradient></defs><defs><linearGradient id="grad1_2" x1="43.8%" y1="0%" x2="100%" y2="100%"><stop offset="14.444444444444446%" stop-color="#832a70" stop-opacity="1"></stop><stop offset="85.55555555555554%" stop-color="#a5266f" stop-opacity="1"></stop></linearGradient></defs><defs><linearGradient id="grad1_3" x1="43.8%" y1="0%" x2="100%" y2="100%"><stop offset="14.444444444444446%" stop-color="#832a70" stop-opacity="1"></stop><stop offset="85.55555555555554%" stop-color="#602b69" stop-opacity="1"></stop></linearGradient></defs><defs><linearGradient id="grad1_4" x1="43.8%" y1="0%" x2="100%" y2="100%"><stop offset="14.444444444444446%" stop-color="#3f295d" stop-opacity="1"></stop><stop offset="85.55555555555554%" stop-color="#602b69" stop-opacity="1"></stop></linearGradient></defs><defs><linearGradient id="grad1_5" x1="43.8%" y1="0%" x2="100%" y2="100%"><stop offset="14.444444444444446%" stop-color="#3f295d" stop-opacity="1"></stop><stop offset="85.55555555555554%" stop-color="#22244c" stop-opacity="1"></stop></linearGradient></defs><defs><linearGradient id="grad1_6" x1="43.8%" y1="0%" x2="100%" y2="100%"><stop offset="14.444444444444446%" stop-color="#0c1c38" stop-opacity="1"></stop><stop offset="85.55555555555554%" stop-color="#22244c" stop-opacity="1"></stop></linearGradient></defs><defs><linearGradient id="grad1_7" x1="43.8%" y1="0%" x2="100%" y2="100%"><stop offset="14.444444444444446%" stop-color="#0c1c38" stop-opacity="1"></stop><stop offset="85.55555555555554%" stop-color="#001122" stop-opacity="1"></stop></linearGradient></defs><defs><linearGradient id="grad2_0" x1="0%" y1="0%" x2="56.3%" y2="100%"><stop offset="14.444444444444446%" stop-color="#c62368" stop-opacity="1"></stop><stop offset="85.55555555555554%" stop-color="#c62368" stop-opacity="1"></stop></linearGradient></defs><defs><linearGradient id="grad2_1" x1="0%" y1="0%" x2="56.3%" y2="100%"><stop offset="14.444444444444446%" stop-color="#a5266f" stop-opacity="1"></stop><stop offset="85.55555555555554%" stop-color="#c62368" stop-opacity="1"></stop></linearGradient></defs><defs><linearGradient id="grad2_2" x1="0%" y1="0%" x2="56.3%" y2="100%"><stop offset="14.444444444444446%" stop-color="#a5266f" stop-opacity="1"></stop><stop offset="85.55555555555554%" stop-color="#832a70" stop-opacity="1"></stop></linearGradient></defs><defs><linearGradient id="grad2_3" x1="0%" y1="0%" x2="56.3%" y2="100%"><stop offset="14.444444444444446%" stop-color="#602b69" stop-opacity="1"></stop><stop offset="85.55555555555554%" stop-color="#832a70" stop-opacity="1"></stop></linearGradient></defs><defs><linearGradient id="grad2_4" x1="0%" y1="0%" x2="56.3%" y2="100%"><stop offset="14.444444444444446%" stop-color="#602b69" stop-opacity="1"></stop><stop offset="85.55555555555554%" stop-color="#3f295d" stop-opacity="1"></stop></linearGradient></defs><defs><linearGradient id="grad2_5" x1="0%" y1="0%" x2="56.3%" y2="100%"><stop offset="14.444444444444446%" stop-color="#22244c" stop-opacity="1"></stop><stop offset="85.55555555555554%" stop-color="#3f295d" stop-opacity="1"></stop></linearGradient></defs><defs><linearGradient id="grad2_6" x1="0%" y1="0%" x2="56.3%" y2="100%"><stop offset="14.444444444444446%" stop-color="#22244c" stop-opacity="1"></stop><stop offset="85.55555555555554%" stop-color="#0c1c38" stop-opacity="1"></stop></linearGradient></defs><defs><linearGradient id="grad2_7" x1="0%" y1="0%" x2="56.3%" y2="100%"><stop offset="14.444444444444446%" stop-color="#001122" stop-opacity="1"></stop><stop offset="85.55555555555554%" stop-color="#0c1c38" stop-opacity="1"></stop></linearGradient></defs><g transform="translate(960, 0)"><path d="M0 286C-29 243.8 -57.9 201.6 -106.5 184.5C-155.1 167.3 -223.2 175.1 -257.2 148.5C-291.2 121.9 -291.1 61 -291 0L0 0Z" fill="#05172d"></path><path d="M0 250.3C-25.4 213.3 -50.7 176.4 -93.2 161.4C-135.7 146.4 -195.3 153.2 -225.1 129.9C-254.8 106.7 -254.7 53.3 -254.6 0L0 0Z" fill="#162042"></path><path d="M0 214.5C-21.7 182.9 -43.5 151.2 -79.9 138.3C-116.3 125.5 -167.4 131.3 -192.9 111.4C-218.4 91.4 -218.3 45.7 -218.2 0L0 0Z" fill="#302755"></path><path d="M0 178.8C-18.1 152.4 -36.2 126 -66.6 115.3C-96.9 104.5 -139.5 109.4 -160.8 92.8C-182 76.2 -181.9 38.1 -181.9 0L0 0Z" fill="#4f2b64"></path><path d="M0 143C-14.5 121.9 -29 100.8 -53.2 92.2C-77.5 83.6 -111.6 87.5 -128.6 74.3C-145.6 61 -145.6 30.5 -145.5 0L0 0Z" fill="#712b6d"></path><path d="M0 107.3C-10.9 91.4 -21.7 75.6 -39.9 69.2C-58.1 62.7 -83.7 65.7 -96.5 55.7C-109.2 45.7 -109.2 22.9 -109.1 0L0 0Z" fill="#942870"></path><path d="M0 71.5C-7.2 61 -14.5 50.4 -26.6 46.1C-38.8 41.8 -55.8 43.8 -64.3 37.1C-72.8 30.5 -72.8 15.2 -72.7 0L0 0Z" fill="#b6246c"></path><path d="M0 35.8C-3.6 30.5 -7.2 25.2 -13.3 23.1C-19.4 20.9 -27.9 21.9 -32.2 18.6C-36.4 15.2 -36.4 7.6 -36.4 0L0 0Z" fill="#c62368"></path></g><g transform="translate(0, 540)"><path d="M0 -279C45.8 -257.1 91.6 -235.3 119 -206.1C146.4 -177 155.3 -140.6 181.9 -105C208.5 -69.4 252.7 -34.7 297 0L0 0Z" fill="#05172d"></path><path d="M0 -244.1C40.1 -225 80.2 -205.8 104.1 -180.3C128.1 -154.9 135.9 -123 159.1 -91.9C182.4 -60.8 221.1 -30.4 259.9 0L0 0Z" fill="#162042"></path><path d="M0 -209.2C34.4 -192.8 68.7 -176.4 89.2 -154.6C109.8 -132.7 116.5 -105.4 136.4 -78.8C156.3 -52.1 189.5 -26 222.8 0L0 0Z" fill="#302755"></path><path d="M0 -174.4C28.6 -160.7 57.3 -147 74.4 -128.8C91.5 -110.6 97 -87.9 113.7 -65.6C130.3 -43.4 158 -21.7 185.6 0L0 0Z" fill="#4f2b64"></path><path d="M0 -139.5C22.9 -128.6 45.8 -117.6 59.5 -103.1C73.2 -88.5 77.6 -70.3 90.9 -52.5C104.2 -34.7 126.4 -17.4 148.5 0L0 0Z" fill="#712b6d"></path><path d="M0 -104.6C17.2 -96.4 34.4 -88.2 44.6 -77.3C54.9 -66.4 58.2 -52.7 68.2 -39.4C78.2 -26 94.8 -13 111.4 0L0 0Z" fill="#942870"></path><path d="M0 -69.7C11.5 -64.3 22.9 -58.8 29.7 -51.5C36.6 -44.2 38.8 -35.1 45.5 -26.3C52.1 -17.4 63.2 -8.7 74.3 0L0 0Z" fill="#b6246c"></path><path d="M0 -34.9C5.7 -32.1 11.5 -29.4 14.9 -25.8C18.3 -22.1 19.4 -17.6 22.7 -13.1C26.1 -8.7 31.6 -4.3 37.1 0L0 0Z" fill="#c62368"></path></g></svg>